<?xml version="1.0" encoding="UTF-8" standalone="no"?>
<!DOCTYPE svg PUBLIC "-//W3C//DTD SVG 1.1//EN" "http://www.w3.org/Graphics/SVG/1.1/DTD/svg11.dtd">
<svg width="100%" height="100%" viewBox="0 0 189 176" version="1.1" xmlns="http://www.w3.org/2000/svg" xmlns:xlink="http://www.w3.org/1999/xlink" xml:space="preserve" xmlns:serif="http://www.serif.com/" style="fill-rule:evenodd;clip-rule:evenodd;stroke-linejoin:round;stroke-miterlimit:2;">
    <g transform="matrix(1,0,0,1,-3005.03,-2923.49)">
        <g transform="matrix(3.09441,0,0,3.09441,-1866.99,-1057.75)">
            <path d="M1582.8,1287.08L1584.44,1287.08C1584.96,1287.08 1585.62,1287.27 1586.43,1287.66C1587.24,1288.05 1588.1,1288.24 1589,1288.24L1591.71,1287.37L1597.34,1287.37C1598.05,1287.37 1598.53,1287.69 1598.79,1288.34C1598.92,1288.6 1598.99,1288.92 1598.99,1289.31C1598.99,1290.66 1598.79,1291.62 1598.4,1292.17C1598.02,1292.72 1597.52,1293.07 1596.9,1293.23C1596.29,1293.39 1595.64,1293.49 1594.96,1293.52C1594.28,1293.56 1593.64,1293.7 1593.02,1293.96C1592.41,1294.22 1591.91,1294.72 1591.52,1295.46C1591.13,1296.21 1590.94,1297.38 1590.94,1299C1590.94,1299.52 1591.07,1300.33 1591.33,1301.42C1591.59,1302.52 1591.71,1303.33 1591.71,1303.85L1591.71,1306.56C1591.71,1307.86 1592.13,1308.99 1592.98,1309.96C1593.82,1310.93 1594.91,1311.41 1596.27,1311.41C1596.79,1311.41 1597.24,1311.31 1597.63,1311.12C1597.89,1311.06 1598.08,1310.96 1598.21,1310.83L1601.7,1311.41L1606.26,1311.41C1606.77,1311.41 1607.29,1311.44 1607.81,1311.51C1608.84,1311.64 1609.59,1311.96 1610.04,1312.48C1610.36,1312.48 1610.64,1312.43 1610.86,1312.33C1611.09,1312.24 1611.27,1312.19 1611.39,1312.19C1611.65,1312.06 1611.91,1311.89 1612.17,1311.7C1612.43,1311.51 1612.62,1311.41 1612.75,1311.41L1616.53,1311.41C1616.92,1311.09 1617.28,1310.68 1617.6,1310.2C1617.92,1309.71 1618.09,1309.21 1618.09,1308.7L1618.09,1301.13L1617.02,1296.29L1617.02,1294.64C1617.02,1293.99 1616.79,1293.54 1616.34,1293.28C1615.89,1293.02 1615.4,1292.8 1614.88,1292.6C1614.37,1292.41 1613.88,1292.13 1613.43,1291.78C1612.98,1291.42 1612.75,1290.76 1612.75,1289.79C1612.75,1289.02 1613.14,1288.29 1613.92,1287.61C1614.69,1286.93 1615.56,1286.59 1616.53,1286.59C1617.37,1286.91 1618.25,1287.21 1619.15,1287.46C1619.93,1287.66 1620.78,1287.84 1621.72,1288C1622.66,1288.16 1623.61,1288.24 1624.58,1288.24L1628.36,1288.24C1629.01,1288.24 1629.75,1288.32 1630.59,1288.48C1631.43,1288.64 1632.19,1288.9 1632.87,1289.26C1633.55,1289.61 1634.13,1290.1 1634.61,1290.71C1635.1,1291.33 1635.34,1292.12 1635.34,1293.09L1634.86,1294.15L1632.63,1294.64L1630.01,1294.64C1629.56,1294.64 1628.99,1295.06 1628.31,1295.9C1627.63,1296.74 1627.3,1297.48 1627.3,1298.13L1627.3,1308.4C1627.3,1308.79 1627.38,1309.5 1627.54,1310.54C1627.7,1311.57 1627.78,1312.32 1627.78,1312.77C1627.78,1313.03 1627.68,1313.32 1627.49,1313.64C1627.3,1313.96 1627.13,1314.29 1627,1314.61C1626.68,1315.45 1626.52,1316.06 1626.52,1316.45L1626.52,1321.88C1626.52,1322.85 1626.6,1323.79 1626.76,1324.69C1626.92,1325.6 1627,1326.47 1627,1327.31C1627,1327.83 1626.92,1328.38 1626.76,1328.96C1626.6,1329.54 1626.52,1330.25 1626.52,1331.09C1626.52,1331.54 1626.49,1331.9 1626.42,1332.16C1626.36,1332.42 1626.31,1332.67 1626.28,1332.93C1626.24,1333.19 1626.24,1333.47 1626.28,1333.76C1626.31,1334.05 1626.39,1334.42 1626.52,1334.87C1626.71,1335.58 1627.28,1336.18 1628.22,1336.67C1629.15,1337.15 1630.15,1337.59 1631.22,1337.98C1632.29,1338.36 1633.24,1338.75 1634.08,1339.14C1634.92,1339.53 1635.34,1339.98 1635.34,1340.5C1635.34,1340.95 1635.2,1341.32 1634.9,1341.61C1634.61,1341.9 1634.31,1342.18 1633.98,1342.43C1633.6,1342.69 1633.14,1342.95 1632.63,1343.21L1621.87,1343.21L1617.31,1342.14L1614.59,1343.21C1614.4,1343.21 1614.11,1343.19 1613.72,1343.16C1613.33,1343.13 1612.95,1343.06 1612.56,1342.97C1612.17,1342.87 1611.83,1342.69 1611.54,1342.43C1611.25,1342.18 1611.1,1341.79 1611.1,1341.27C1611.1,1340.56 1611.43,1339.98 1612.07,1339.53C1612.72,1339.07 1613.43,1338.56 1614.21,1337.98C1614.98,1337.39 1615.69,1336.67 1616.34,1335.79C1616.99,1334.92 1617.31,1333.71 1617.31,1332.16L1617.31,1321.11C1617.31,1320.65 1617.13,1320.09 1616.78,1319.41C1616.42,1318.73 1615.98,1318.39 1615.47,1318.39L1609.26,1318.39C1608.81,1318.39 1608.16,1318.21 1607.32,1317.86C1606.48,1317.5 1605.87,1317.33 1605.48,1317.33L1596.27,1317.33C1594.91,1317.33 1593.82,1317.62 1592.98,1318.2C1592.13,1318.78 1591.71,1319.75 1591.71,1321.11L1591.71,1327.31C1591.33,1328.41 1591.1,1329.07 1591.04,1329.3C1590.97,1329.52 1590.94,1329.83 1590.94,1330.22C1590.94,1330.67 1591.07,1331.17 1591.33,1331.72C1591.59,1332.27 1591.71,1332.93 1591.71,1333.71C1591.33,1334.68 1591.44,1335.47 1592.05,1336.08C1592.67,1336.7 1593.43,1337.28 1594.33,1337.83C1595.24,1338.38 1596.11,1338.91 1596.95,1339.43C1597.79,1339.95 1598.21,1340.56 1598.21,1341.27C1598.21,1341.46 1598.07,1341.67 1597.77,1341.9C1597.48,1342.13 1597.14,1342.31 1596.76,1342.43C1596.37,1342.56 1595.98,1342.68 1595.59,1342.77C1595.2,1342.87 1594.91,1342.92 1594.72,1342.92C1594.4,1342.92 1593.96,1342.84 1593.41,1342.68C1592.86,1342.52 1592.25,1342.32 1591.57,1342.1C1590.89,1341.87 1590.16,1341.67 1589.39,1341.51C1588.61,1341.35 1587.87,1341.27 1587.16,1341.27C1586.84,1341.46 1586.51,1341.63 1586.19,1341.76C1585.87,1341.88 1585.56,1341.98 1585.27,1342.05C1584.98,1342.11 1584.7,1342.14 1584.44,1342.14L1579.01,1342.14C1578.11,1342.14 1577.22,1341.92 1576.35,1341.46C1575.48,1341.01 1575.04,1340.24 1575.04,1339.14C1575.04,1338.3 1575.15,1337.46 1575.38,1336.62C1575.61,1335.78 1576.2,1335.36 1577.17,1335.36L1579.01,1334.87C1579.53,1334.87 1580.11,1334.52 1580.76,1333.81C1581.41,1333.1 1581.73,1332.55 1581.73,1332.16L1581.73,1325.66C1581.73,1325.14 1581.55,1324.27 1581.19,1323.05C1580.84,1321.82 1580.66,1320.52 1580.66,1319.17L1580.66,1314.61C1580.66,1314.42 1580.71,1314.06 1580.81,1313.54C1580.9,1313.03 1581.03,1312.48 1581.19,1311.89C1581.36,1311.31 1581.49,1310.76 1581.58,1310.25C1581.68,1309.73 1581.73,1309.38 1581.73,1309.18L1580.66,1304.62C1580.66,1304.11 1580.82,1303.43 1581.15,1302.59C1581.34,1302.14 1581.54,1301.65 1581.73,1301.13L1581.73,1294.64C1581.73,1294.19 1581.36,1293.83 1580.61,1293.57C1579.87,1293.31 1579.03,1293.1 1578.09,1292.94C1577.16,1292.78 1576.32,1292.62 1575.57,1292.46C1574.83,1292.3 1574.46,1292.12 1574.46,1291.92C1574.46,1290.7 1574.83,1289.63 1575.57,1288.73C1576.32,1287.82 1577.11,1287.37 1577.95,1287.37L1582.8,1287.08Z" style="fill:rgb(35,31,32);fill-rule:nonzero;"/>
        </g>
    </g>
</svg>
